<?xml version="1.0" encoding="UTF-8" standalone="no"?>
<!-- Svg Vector Icons : http://www.onlinewebfonts.com/icon -->

<svg
   version="1.1"
   x="0px"
   y="0px"
   viewBox="0 0 1000 1000"
   enable-background="new 0 0 1000 1000"
   xml:space="preserve"
   id="svg8"
   sodipodi:docname="post-icon.svg"
   inkscape:version="1.1 (c68e22c387, 2021-05-23)"
   xmlns:inkscape="http://www.inkscape.org/namespaces/inkscape"
   xmlns:sodipodi="http://sodipodi.sourceforge.net/DTD/sodipodi-0.dtd"
   xmlns="http://www.w3.org/2000/svg"
   xmlns:svg="http://www.w3.org/2000/svg"><defs
   id="defs12" /><sodipodi:namedview
   id="namedview10"
   pagecolor="#ffffff"
   bordercolor="#cccccc"
   borderopacity="1"
   inkscape:pageshadow="0"
   inkscape:pageopacity="1"
   inkscape:pagecheckerboard="0"
   showgrid="false"
   inkscape:snap-bbox="true"
   inkscape:bbox-paths="true"
   inkscape:bbox-nodes="true"
   inkscape:snap-bbox-edge-midpoints="true"
   inkscape:snap-bbox-midpoints="true"
   inkscape:object-paths="true"
   inkscape:snap-intersection-paths="true"
   inkscape:snap-smooth-nodes="true"
   inkscape:snap-midpoints="true"
   inkscape:snap-object-midpoints="true"
   inkscape:snap-center="true"
   inkscape:snap-text-baseline="true"
   inkscape:snap-page="true"
   inkscape:zoom="0.60104076"
   inkscape:cx="554.87085"
   inkscape:cy="499.96609"
   inkscape:window-width="1920"
   inkscape:window-height="1009"
   inkscape:window-x="-8"
   inkscape:window-y="-8"
   inkscape:window-maximized="1"
   inkscape:current-layer="svg8" />
<metadata
   id="metadata2"> Svg Vector Icons : http://www.onlinewebfonts.com/icon </metadata>
<g
   id="g6"
   transform="matrix(1.0683761,0,0,1.0204082,-34.188033,-10.204082)"><path
     d="m 566.2,305.1 -57.2,59.6 -51.6,53.6 c -15.5,16.3 -58.9,60.3 -69.3,71.3 -10.4,11 -17,18.1 -19.8,20.9 -6.6,6.9 -11.7,13.2 -15.2,18.8 -3.6,5.6 -6.7,11.8 -9.5,18.6 -2.3,4.4 -5.4,12.5 -9.1,24.2 -3.8,11.8 -7.7,24.7 -11.7,38.6 -4,13.9 -7.8,27.5 -11.2,40.6 -3.7,13 -5.9,22.9 -6.8,29.8 -1.9,12.8 -0.7,21.9 3.6,27.2 4.2,5.5 12.7,7.3 25.4,5.9 6.2,-1 15.5,-3.1 27.9,-6.5 12.5,-3.5 25.8,-7.4 39.6,-12.1 13.8,-4.7 27.2,-9.4 40,-14.3 12.8,-4.9 22.4,-9.1 28.9,-12.5 6.6,-3 13,-6.9 19.1,-11.7 6.1,-5 11.5,-9.6 16.2,-14 1.9,-1.5 7.8,-7.4 17.7,-17.8 9.9,-10.2 22.4,-23.4 37.5,-39.3 15,-16 62.5,-64 81.3,-83.1 L 698.5,443.3 846,287.3 712.7,152.5 Z m 324,84.8 v 220.1 137.2 -0.9 29.1 c 0,75.3 -61.4,136.6 -136.7,136.6 h -165.3 -0.1 -176 v 0 H 246.7 C 171.4,912 110.1,850.7 110.1,775.4 V 744.7 744.4 390 250.8 v 2 -28.3 c 0,-75.3 61.3,-136.6 136.6,-136.6 H 412.1 512 557.7 581 L 673.5,10 h -30.6 v 0 H 246.7 C 131.8,10 37.7,100.7 32.3,214.2 H 32 v 10.4 1.8 0 549.1 10.3 h 0.2 C 37.7,899.3 131.8,990 246.6,990 h 3.9 499.2 3.8 c 114.8,0 208.9,-90.7 214.3,-204.2 H 968 V 775.5 313.3 Z M 871.5,40.8 c -5.1,-1 -10,-1.4 -14.6,-1.3 h 2 c 4.4,0.2 8.5,0.6 12.6,1.3 z m 84.3,99.4 c 0.6,-13.7 -3,-28.9 -10.7,-43.3 C 939.8,87 932.7,77.6 923.9,68.9 908.1,53.6 889.4,44 871.5,40.8 867.4,40 863.2,39.6 858.9,39.5 h -2 c -7.9,-0.1 -16,1.2 -24,3.7 -8.6,2.7 -17.3,7.5 -25.6,14.1 -6.3,5.6 -14.4,13 -24,22.5 -9.8,9.4 -18.2,17.6 -25.2,24.3 l 132.5,134.7 c 4.1,-3.7 8.6,-7.9 13.4,-12.8 3.9,-4.3 8.8,-9.1 14.4,-14.7 5.7,-5.5 11.8,-11.9 18.7,-19.2 6.5,-7.3 11.2,-15 14.2,-22.9 3,-8 4.3,-16 4.3,-23.9 0.2,-1.6 0.2,-3.3 0.2,-5.1 z"
     id="path4" /></g>
</svg>
